<svg xmlns="http://www.w3.org/2000/svg" viewBox="0 0 800 385" role="img" aria-labelledby="t d"><title id="t">Здесь могла быть ваша реклама</title><desc id="d">Динамичный спортивный рекламный баннер</desc><defs><linearGradient id="g" x1="0" y1="0" x2="1" y2="1"><stop stop-color="#111217"/><stop offset=".55" stop-color="#251b3d"/><stop offset="1" stop-color="#4a2457"/></linearGradient><linearGradient id="a" x1="0" y1="0" x2="1" y2="0"><stop stop-color="#ff5fa2"/><stop offset="1" stop-color="#a875ff"/></linearGradient></defs><rect width="800" height="385" fill="url(#g)"/><g opacity=".18" fill="none" stroke="#fff" stroke-width="2"><circle cx="655" cy="185" r="125"/><circle cx="655" cy="185" r="160"/><path d="M470 330L800 70M520 385L800 165"/></g><g transform="translate(555 88)" fill="none" stroke="url(#a)" stroke-width="13" stroke-linecap="round" stroke-linejoin="round"><circle cx="70" cy="28" r="20" fill="#ff75b6" stroke="none"/><path d="M70 55l-25 68 52 25 28-54M45 123l-32 72M96 148l34 62M58 82l-45 32M84 79l57 13"/></g><text x="52" y="78" fill="#ff91c3" font-family="Arial,sans-serif" font-size="18" font-weight="700" letter-spacing="3">ENERGY • MOTION • SPORT</text><text x="52" y="142" fill="#fff" font-family="Arial,sans-serif" font-size="42" font-weight="800">ЗДЕСЬ МОГЛА БЫТЬ</text><text x="52" y="192" fill="#fff" font-family="Arial,sans-serif" font-size="42" font-weight="800">ВАША РЕКЛАМА</text><text x="52" y="238" fill="#ddd4e6" font-family="Arial,sans-serif" font-size="19">Спортзалы • команды • экипировка • бренды</text><rect x="52" y="280" rx="24" width="212" height="50" fill="url(#a)"/><text x="82" y="312" fill="#fff" font-family="Arial,sans-serif" font-size="16" font-weight="700">РЕКЛАМНОЕ МЕСТО</text></svg>